<svg width="12" height="12" viewBox="0 0 12 12" fill="none" xmlns="http://www.w3.org/2000/svg">
    <style>
        path, circle {
            stroke: black;
            stroke-width: 1.125px
        }
        @media (prefers-color-scheme: dark) {
            path, circle { stroke: rgb(221, 221, 221); }
        }
    </style>
    <circle cx="6" cy="3" r="2.5" stroke="black"/>
    <path d="M9.92255 8.84858C10.4302 9.27164 10.827 9.76893 11.0955 10.3091C11.2401 10.6 11.1842 10.8645 10.9942 11.0853C10.7901 11.3225 10.4286 11.5 10.0152 11.5L1.9848 11.5C1.57144 11.5 1.20987 11.3225 1.00576 11.0853C0.815794 10.8645 0.759893 10.6 0.904462 10.3091C1.17297 9.76893 1.56978 9.27164 2.07745 8.84858C2.58526 8.4254 3.19276 8.08598 3.86704 7.85324C4.54129 7.6205 5.26629 7.5 6 7.5C6.73371 7.5 7.45871 7.6205 8.13296 7.85324C8.80724 8.08598 9.41474 8.4254 9.92255 8.84858Z" stroke="black"/>
</svg>
